<svg id="a431776e-b028-4f49-91ad-28e12641bb84" data-name="Layer 1" xmlns="http://www.w3.org/2000/svg" viewBox="0 0 1283.78953 1281.84964"><defs><style>.bf8eaa89-599c-42fb-abbc-2e458cc954e4{fill:#ffc107;}.bb543b3a-3be2-4c49-8b87-371f1654321f{fill:#f4516c;}.bab89647-d6ec-49a4-911d-929cdcadff5c{fill:#36bc98;}.e4216485-8c92-4a59-902c-87b4ef39df5a{fill:#5c9fd8;}.bf0edeac-7dc8-4599-89f4-c2074a4e0a8a{fill:#212529;}</style></defs><path class="bf8eaa89-599c-42fb-abbc-2e458cc954e4" d="M1221.28973,696.36685l-75,81.40369-75-81.40369-23.13281-25.10779c-7.09473,96.81049-48.17871,186.864-117.51758,256.203-73.55518,73.55518-170.41748,115.33228-273.93164,118.449V1245.9703a604.56193,604.56193,0,0,0,592.0332-579.39886Z"/><polygon class="bb543b3a-3be2-4c49-8b87-371f1654321f" points="1146.29 613.963 1283.79 613.963 1215.04 688.583 1146.29 763.203 1077.54 688.583 1008.79 613.963 1146.29 613.963"/><path class="bab89647-d6ec-49a4-911d-929cdcadff5c" d="M408.65448,83.54556A604.56175,604.56175,0,0,0,39.7868,612.88479L62.50018,588.232l75-81.40368,75,81.40368,27.29688,29.62781c5.57324-99.48761,46.95752-192.23956,117.97851-263.26154,73.55567-73.55468,170.417-115.33129,273.93213-118.448V36.09091A600.76216,600.76216,0,0,0,408.65448,83.54556Z"/><polygon class="e4216485-8c92-4a59-902c-87b4ef39df5a" points="137.5 670.636 0 670.636 68.75 596.016 137.5 521.396 206.25 596.016 275 670.636 137.5 670.636"/><path class="bb543b3a-3be2-4c49-8b87-371f1654321f" d="M1201.69305,405.4772A604.57493,604.57493,0,0,0,671.735,36.57882L699.86932,62.5l81.40381,75-81.40381,75L673.27166,237.0054c97.25245,6.84961,187.751,47.97674,257.36768,117.59289,73.55518,73.55567,115.332,170.41724,118.44873,273.93213h200.05957A600.76346,600.76346,0,0,0,1201.69305,405.4772Z"/><polygon class="bab89647-d6ec-49a4-911d-929cdcadff5c" points="617.466 137.5 617.466 0 692.086 68.75 766.706 137.5 692.086 206.25 617.466 275 617.466 137.5"/><path class="e4216485-8c92-4a59-902c-87b4ef39df5a" d="M588.21942,1219.34964l-81.40332-75,81.40332-75L614.6242,1045.022c-97.05566-6.95917-187.35546-48.06708-256.84863-117.55994C284.22088,853.90689,242.444,757.045,239.32733,653.53042H39.26825a604.57585,604.57585,0,0,0,577.31006,591.947Z"/><polygon class="bf8eaa89-599c-42fb-abbc-2e458cc954e4" points="670.623 1144.35 670.623 1281.85 596.003 1213.1 521.383 1144.35 596.003 1075.6 670.623 1006.85 670.623 1144.35"/><path class="bf0edeac-7dc8-4599-89f4-c2074a4e0a8a" d="M257.47821,328.11361l9.793,14.83985-10.21485,11.72363L220.072,295.51693l13.01269-14.93359L297.072,308.75815l-10.73633,12.32031-16.2998-7.375Zm2.61426-20.18554-13.40918-6.168c-3.76758-1.70606-8.28125-4.06445-11.91895-5.91992l-.12988.14941c2.335,3.34863,5.49316,7.41406,7.68945,10.77344l8.07422,12.29Z"/><path class="bf0edeac-7dc8-4599-89f4-c2074a4e0a8a" d="M335.614,271.80014c-1.12207,2.74707-4.76562,8.16992-10.7207,13.54492-17.12891,15.46094-35.63965,12.69043-48.37891-1.42481-15.26269-16.90918-11.63281-37.1289,3.36524-50.66406,5.80859-5.24219,11.21386-8.12109,14.19433-8.81054l5.61035,10.94531a31.824,31.824,0,0,0-11.06933,6.65625c-8.82129,7.96191-10.88868,19.5664-.93555,30.59375,8.957,9.9248,20.47852,10.86621,30.4043,1.90722a35.92933,35.92933,0,0,0,7.95019-10.10937Z"/><path class="bf0edeac-7dc8-4599-89f4-c2074a4e0a8a" d="M323.69208,215.8226,308.9909,226.25522,301.654,215.91635l41.84082-29.69043,7.33691,10.33887-14.8623,10.54589,31.2959,44.10157L354.988,259.92514Z"/><path class="bf0edeac-7dc8-4599-89f4-c2074a4e0a8a" d="M920.52313,217.19369c-10.93555,19.07324-28.915,23.94824-45.92578,14.19434-17.09863-9.80274-19.79785-28.58887-10.28906-45.1709,9.95019-17.35645,28.55761-23.92481,45.56933-14.1709C927.66278,182.2435,929.736,201.12729,920.52313,217.19369ZM878.28778,193.89c-6.55176,11.42774-5.80567,22.47168,2.957,27.49707,8.84863,5.07324,18.74707-.44043,25.20019-11.69531,6.00977-10.48242,6.23536-22.22363-2.78515-27.39746C894.7243,177.17123,884.7409,182.6351,878.28778,193.89Z"/><path class="bf0edeac-7dc8-4599-89f4-c2074a4e0a8a" d="M949.72235,199.19467A131.596,131.596,0,0,1,966.07489,209.933c7.32129,5.58887,11.2666,9.72461,13.46094,15.0127a14.48808,14.48808,0,0,1-1.69629,15.27832c-3.54688,4.6455-9.60645,6.87207-17.334,4.58691l-.12012.15723c4.85938,6.20312,5.80176,14.27441.63282,21.04394a17.83707,17.83707,0,0,1-14.166,7.12988c-6.20215.125-13.97949-3.07031-24.5293-11.125a116.85609,116.85609,0,0,1-12.38867-10.70507Zm-21.58887,52.92578a47.19965,47.19965,0,0,0,4.52442,3.7041c5.43164,4.14844,11.85742,5.68848,16.125.09863,4.02636-5.27539.84668-11.0664-5.13672-15.63378l-4.09375-3.126Zm17.9707-23.53906,3.93653,3.00586c6.37695,4.86816,11.666,4.79492,14.67187.85742,3.06543-4.01367,1.61719-8.48438-3.81347-12.63086a39.29076,39.29076,0,0,0-5.35938-3.5918Z"/><path class="bf0edeac-7dc8-4599-89f4-c2074a4e0a8a" d="M966.43426,276.48373a38.12542,38.12542,0,0,0,9.18067,14.59961c4.99707,4.80469,9.62988,5.27441,12.64941,2.13281,2.88281-2.998,2.24707-6.90722-1.61426-14.46679-5.249-10.543-6.27539-20.04883.45117-27.04493,7.89454-8.209,20.79-7.76171,32.06934,3.084,5.49609,5.28711,8.39356,10.13281,9.94434,14.23437l-10.80176,6.375a31.21831,31.21831,0,0,0-7.79688-11.89453c-4.71191-4.53027-9.124-4.51367-11.458-2.08691-2.95118,3.06933-1.61426,6.96582,2.40234,15.3623,5.47363,11.30957,5.14453,19.51075-1.377,26.291-7.75684,8.06738-20.48438,9.01758-33.69043-3.68164-5.49707-5.28613-9.48145-12.001-10.75293-16.1084Z"/><path class="bf0edeac-7dc8-4599-89f4-c2074a4e0a8a" d="M1039.30047,335.93686l-15.7832-18.81836-12.1416,10.18164,17.62793,21.01953-9.48535,7.9541L992.21747,323.721l51.14453-42.89258,26.40918,31.49121-9.48438,7.95508-16.7373-19.957-10.624,8.90918,15.78321,18.81835Z"/><path class="bf0edeac-7dc8-4599-89f4-c2074a4e0a8a" d="M1079.51141,326.68881a131.6027,131.6027,0,0,1,12.25879,15.99609c5.46973,8.25684,8.05957,14.85742,7.54785,20.89942-.40039,5.13574-3.16015,9.57715-8.28027,12.96777-7.01856,4.64941-15.22559,2.83887-20.13184-.80078l-.248.16406c1.002,4.91992-1.209,9.47266-5.39844,14.26758-5.21,5.94629-11.38184,12.41016-12.81738,14.90625l-8.53418-12.88086c1.10546-1.91992,4.63574-6.27832,10.44921-12.38574,5.9795-6.21778,6.209-9.81543,2.84668-15.07227l-2.46093-3.71484L1032.861,375.52865l-8.25879-12.46875Zm-15.6875,28.3291,3.2832,4.95508c4.15625,6.27539,9.75489,7.91211,14.627,4.68457,5.03613-3.33594,5.38183-8.55469,1.55273-14.333a30.05335,30.05335,0,0,0-4.18555-5.4248Z"/><path class="bf0edeac-7dc8-4599-89f4-c2074a4e0a8a" d="M1062.20282,424.23764l50.19726-48.92871,7.37989,14.80175L1098.14129,409.974c-6.16308,5.61718-11.97168,10.83691-18.71,15.96679l.13282.2666c7.93066-2.07226,15.94921-3.74707,23.79-5.11132l29.32911-5.10254,7.1582,14.35937L1070.069,440.015Z"/><path class="bf0edeac-7dc8-4599-89f4-c2074a4e0a8a" d="M1121.5495,493.04037l-8.30176-23.11523-14.91211,5.35547,9.27148,25.81738-11.65234,4.18457-14.35742-39.98731,62.82226-22.55761,13.88965,38.68164-11.65136,4.18359-8.80274-24.51465-13.04883,4.68555,8.30078,23.11621Z"/><path class="bf0edeac-7dc8-4599-89f4-c2074a4e0a8a" d="M187.819,778.224a134.426,134.426,0,0,1,8.48633,18.72168c4.4541,12.10546,5.10254,20.81738,2.80761,28.48046-2.46289,8.36621-8.73242,15.36133-19.90039,19.46973-12.10547,4.45508-22.08105,3.11816-29.45312-.98926-7.98828-4.626-14.38086-13.88867-18.93848-26.27539a130.53672,130.53672,0,0,1-5.03515-16.581Zm-46.27442,33.22265a28.59438,28.59438,0,0,0,1.54981,5.07715c4.70508,13.08008,14.98047,18.99609,30.08887,13.43555,13.13867-4.834,17.25293-15.085,12.69433-27.47266a32.55286,32.55286,0,0,0-2.94629-6.26855Z"/><path class="bf0edeac-7dc8-4599-89f4-c2074a4e0a8a" d="M196.58661,893.42807l-11.35938-22.04688-14.22363,7.33008,12.68848,24.624-11.11329,5.72559L152.9284,870.92416l59.916-30.874,19.01074,36.89355-11.11328,5.72461L208.695,859.28842l-12.44433,6.41308L207.61,887.74838Z"/><path class="bf0edeac-7dc8-4599-89f4-c2074a4e0a8a" d="M209.26922,962.28744c-2.582-1.52148-7.46972-5.95215-11.97168-12.68554-12.95117-19.36817-7.48437-37.459,8.47657-48.13086,19.11816-12.78418,38.792-6.21,50.13183,10.748,4.39063,6.56641,6.47852,12.38867,6.73242,15.4668l-11.75488,4.00977a32.11465,32.11465,0,0,0-5.03613-12.03028c-6.6709-9.97558-17.96289-13.73144-30.43262-5.39453-11.22168,7.50391-13.84082,18.87891-6.33594,30.10156a36.3003,36.3003,0,0,0,8.94141,9.417Z"/><path class="bf0edeac-7dc8-4599-89f4-c2074a4e0a8a" d="M278.76629,943.63705l-52.47461,42.29688-9.53906-11.834,52.47461-42.29687Z"/><path class="bf0edeac-7dc8-4599-89f4-c2074a4e0a8a" d="M284.46258,953.055a134.5579,134.5579,0,0,1,15.45606,13.55078c9.05371,9.19043,13.24023,16.85938,14.3125,24.78711,1.209,8.63672-1.61719,17.5957-10.09375,25.94824-9.18946,9.05371-18.8291,11.95215-27.24024,11.25293-9.18457-.917-18.83007-6.71679-28.09375-16.12011a131.059,131.059,0,0,1-11.43164-13.02637Zm-28.44336,49.36035a28.66709,28.66709,0,0,0,3.50684,3.98633c9.68555,9.97266,21.48535,11.12109,32.95508-.17871,9.97363-9.82617,9.49023-20.86133.22558-30.26563a32.43166,32.43166,0,0,0-5.2705-4.49414Z"/><path class="bf0edeac-7dc8-4599-89f4-c2074a4e0a8a" d="M339.99969,1054.307l-19.46191-15.37207-9.917,12.55567,21.73632,17.16992-7.74707,9.80859L290.946,1051.87826l41.77637-52.88965,32.56543,25.72266-7.748,9.80859L336.902,1018.21908l-8.67774,10.98535,19.46094,15.37207Z"/><path class="bf0edeac-7dc8-4599-89f4-c2074a4e0a8a" d="M888.529,1083.45053c9.5332,20.04883,3.2334,37.77051-14.64746,46.27344-17.96973,8.54492-35.11035-.02344-43.39844-17.45313-8.67383-18.24121-3.41894-37.46,14.46094-45.96289C863.63739,1057.41928,880.49872,1066.56381,888.529,1083.45053Zm-43.63574,21.63672c5.71093,12.00976,15.30371,17.74609,24.51562,13.36523,9.30078-4.42187,10.4209-15.80566,4.79492-27.63574-5.23828-11.01758-14.85156-17.96192-24.334-13.45313C840.47821,1081.82943,839.26825,1093.25717,844.89325,1105.08725Z"/><path class="bf0edeac-7dc8-4599-89f4-c2074a4e0a8a" d="M880.49286,1050.55893a132.79827,132.79827,0,0,1,16.27246-12.21387c8.3916-5.43652,15.08105-7.98535,21.1748-7.40723,5.18067.45606,9.63672,3.28711,13.00879,8.49024,4.62207,7.13183,2.71192,15.40039-1.01367,20.3164l.16309.252c4.97753-.96192,9.55273,1.31738,14.35058,5.59472,5.94922,5.31934,12.41211,11.61524,14.917,13.09082l-13.09082,8.4834c-1.92675-1.13476-6.28906-4.74121-12.39648-10.67285-6.2168-6.09961-9.84668-6.36914-15.1875-3.02637l-3.77637,2.44629,14.41016,22.23731-12.66992,8.21191Zm28.44043,16.123,5.03418-3.26172c6.37793-4.13378,8.08691-9.76953,4.8789-14.71972-3.31738-5.11817-8.582-5.51953-14.45508-1.71289a30.24927,30.24927,0,0,0-5.51855,4.1709Z"/><path class="bf0edeac-7dc8-4599-89f4-c2074a4e0a8a" d="M939.34442,1008.34506l41.50391,53.10156-11.97461,9.35938-41.50391-53.10059Z"/><path class="bf0edeac-7dc8-4599-89f4-c2074a4e0a8a" d="M1004.02411,1002.84994l-18.21192,16.83594,10.86231,11.75,20.34082-18.80469,8.48633,9.17871-31.50293,29.123-45.75782-49.49414L978.71649,973.265l8.48633,9.18067-19.31348,17.85449,9.50391,10.28027,18.21191-16.83594Z"/><path class="bf0edeac-7dc8-4599-89f4-c2074a4e0a8a" d="M1036.60321,1010.64193l-51.52344-43.44921,11.47363-13.60645,27.90723,5.21973a212.8851,212.8851,0,0,1,24.75,6.48242l.12891-.15235a278.153,278.153,0,0,1-22.33106-17.26171l-14.98242-12.63477,9.02441-10.70312,51.52344,43.44921-10.31445,12.23047-29.15821-5.75195a228.56434,228.56434,0,0,1-25.73535-6.39844l-.25781.30469c7.20117,5.41992,14.59277,11.3916,23.002,18.4834l15.51758,13.08594Z"/><path class="bf0edeac-7dc8-4599-89f4-c2074a4e0a8a" d="M1044.59442,912.09408l-9.9043,15.27051-10.73828-6.96582,28.1875-43.46,10.73926,6.96484-10.0127,15.4375,45.8086,29.71289-8.27149,12.752Z"/><path class="bf0edeac-7dc8-4599-89f4-c2074a4e0a8a" d="M501.49383,630.8265c0,44.39942-26.59961,70.999-66.19824,70.999-39.7998,0-63.39941-30.2002-63.39941-68.79883,0-40.39941,25.999-70.59961,65.59863-70.59961C478.89422,562.42709,501.49383,593.42709,501.49383,630.8265Zm-97.39843,1.59961c0,26.59961,12.40039,45.19922,32.7998,45.19922,20.59961,0,32.39941-19.59961,32.39941-45.79883,0-24.39941-11.39941-45.19921-32.39941-45.19921C416.0954,586.62729,404.0954,606.2269,404.0954,632.42611Z"/><path class="bf0edeac-7dc8-4599-89f4-c2074a4e0a8a" d="M644.89325,630.8265c0,44.39942-26.59961,70.999-66.19922,70.999-39.79883,0-63.39844-30.2002-63.39844-68.79883,0-40.39941,25.999-70.59961,65.59863-70.59961C622.29364,562.42709,644.89325,593.42709,644.89325,630.8265Zm-97.39844,1.59961c0,26.59961,12.40039,45.19922,32.7998,45.19922,20.59961,0,32.39942-19.59961,32.39942-45.79883,0-24.39941-11.39942-45.19921-32.39942-45.19921C559.49481,586.62729,547.49481,606.2269,547.49481,632.42611Z"/><path class="bf0edeac-7dc8-4599-89f4-c2074a4e0a8a" d="M664.89422,566.82748a268.97186,268.97186,0,0,1,40.999-3c25.7998,0,42.59961,4.79981,55.39941,14.39942,13.999,10.40039,22.79981,27,22.79981,50.7998,0,25.7998-9.40039,43.59863-22.2002,54.59863-14.20019,11.79981-35.999,17.40039-62.39941,17.40039a261.48136,261.48136,0,0,1-34.59864-2Zm30.39942,109.79785c2.59961.60059,7,.60059,10.59961.60059,27.7998.20019,45.999-15,45.999-47.19922,0-28-16.39941-42.7998-42.79883-42.7998a64.87115,64.87115,0,0,0-13.7998,1.20019Z"/><path class="bf0edeac-7dc8-4599-89f4-c2074a4e0a8a" d="M832.29559,665.02572,822.695,699.62533H791.29559l41-134.79785h39.999l41.999,134.79785h-32.999L870.8952,665.02572Zm34.19922-22.7998-8.40039-28.59961c-2.39942-8-4.79981-17.999-6.79981-25.999h-.39941c-2,8-4,18.19921-6.2002,25.999l-8,28.59961Z"/></svg>